<?xml version="1.0" standalone="no"?>
<!DOCTYPE svg PUBLIC "-//W3C//DTD SVG 20010904//EN"
 "http://www.w3.org/TR/2001/REC-SVG-20010904/DTD/svg10.dtd">
<svg version="1.0" xmlns="http://www.w3.org/2000/svg"
 width="920.000000pt" height="920.000000pt" viewBox="0 0 920.000000 920.000000"
 preserveAspectRatio="xMidYMid meet">
<metadata>
Created by potrace 1.11, written by Peter Selinger 2001-2013
</metadata>
<g transform="translate(0.000000,920.000000) scale(0.100000,-0.100000)"
fill="#000000" stroke="none">
<path d="M1057 8874 c-1 -1 -108 -5 -237 -8 -129 -4 -262 -9 -295 -11 -33 -2
-112 -6 -175 -9 -186 -9 -264 -17 -276 -26 -6 -6 -10 -41 -8 -92 3 -113 14
-272 19 -276 2 -2 79 -5 172 -7 92 -1 182 -5 198 -9 215 -46 315 -126 377
-298 l23 -63 -3 -2178 -2 -2178 -26 -52 c-62 -121 -163 -225 -268 -277 -101
-50 -215 -62 -440 -47 l-29 2 2 -205 c1 -113 4 -207 7 -209 4 -4 431 -2 914 4
113 2 471 6 795 9 877 9 1198 19 1345 41 14 2 50 7 80 10 30 4 85 13 122 21
37 7 80 16 96 19 52 9 226 62 297 90 364 145 619 369 760 668 39 83 88 215
100 271 49 237 58 312 59 481 2 547 -209 968 -621 1244 -72 49 -342 189 -374
195 -8 1 -32 10 -53 20 -22 9 -72 26 -110 38 l-71 21 85 29 c122 40 312 138
405 207 207 156 343 339 428 577 84 236 104 515 57 764 -6 30 -13 69 -16 85
-10 57 -73 233 -110 307 -120 239 -318 429 -587 565 -134 67 -321 131 -462
159 -22 4 -42 8 -45 9 -5 1 -78 14 -110 20 -8 1 -37 6 -65 9 -27 4 -61 9 -75
11 -42 6 -131 14 -205 20 -38 3 -90 8 -115 10 -72 8 -339 20 -670 31 -172 5
-888 12 -893 8z m752 -288 c-9 -8 -119 -13 -119 -5 0 5 28 9 62 9 34 0 59 -2
57 -4z m-791 -34 c4 -14 0 -15 -22 -6 -9 3 -16 10 -16 14 0 12 33 5 38 -8z
m2297 -14 c36 -17 63 -33 61 -36 -4 -3 -124 53 -135 64 -12 11 16 1 74 -28z
m-722 -65 c-13 -2 -33 -2 -45 0 -13 2 -3 4 22 4 25 0 35 -2 23 -4z m1172 -73
c12 -19 -12 -10 -31 11 -19 22 -19 22 3 10 12 -6 25 -16 28 -21z m-2718 -12
c-3 -8 -6 -5 -6 6 -1 11 2 17 5 13 3 -3 4 -12 1 -19z m1567 13 c-6 -6 -87 -1
-94 6 -2 2 19 3 48 2 28 -1 49 -5 46 -8z m63 -7 c-3 -3 -12 -4 -19 -1 -8 3 -5
6 6 6 11 1 17 -2 13 -5z m-357 -18 c74 -4 149 -8 165 -10 17 -2 64 -7 105 -11
41 -4 78 -9 81 -11 7 -4 6 -2070 -1 -2077 -15 -15 -437 -23 -650 -12 -36 2
-116 4 -178 6 -62 1 -115 6 -118 11 -17 27 -26 1534 -12 1878 4 96 7 187 8
201 l0 25 112 2 c61 1 113 3 115 5 4 4 210 0 373 -7z m960 -6 c8 -5 11 -10 5
-10 -5 0 -17 5 -25 10 -8 5 -10 10 -5 10 6 0 17 -5 25 -10z m-2223 -42 c1 -30
1 -31 -7 -8 -11 33 -12 52 -2 46 4 -2 8 -19 9 -38z m2118 24 c-3 -3 -11 0 -18
7 -9 10 -8 11 6 5 10 -3 15 -9 12 -12z m81 -33 c10 -16 -21 -9 -46 11 l-25 20
33 -11 c17 -6 35 -15 38 -20z m653 -33 c-3 -3 -11 5 -18 17 -13 21 -12 21 5 5
10 -10 16 -20 13 -22z m-165 -79 c5 -22 5 -22 -10 -2 -9 11 -20 29 -26 40 -11
19 -10 20 10 2 11 -10 22 -28 26 -40z m-2686 -48 c-3 -20 -5 -19 -9 9 -3 20
-2 29 4 23 5 -5 7 -19 5 -32z m482 -39 c0 -5 -2 -10 -4 -10 -3 0 -8 5 -11 10
-3 6 -1 10 4 10 6 0 11 -4 11 -10z m2570 -20 c12 -16 19 -30 16 -30 -2 0 -14
14 -26 30 -12 17 -19 30 -16 30 2 0 14 -13 26 -30z m-430 -22 c11 -18 20 -40
20 -48 -1 -15 -50 57 -50 73 0 15 11 6 30 -25z m-2153 -25 c-3 -10 -5 -2 -5
17 0 19 2 27 5 18 2 -10 2 -26 0 -35z m-180 -10 c-3 -10 -5 -4 -5 12 0 17 2
24 5 18 2 -7 2 -21 0 -30z m-120 -65 c-2 -18 -4 -6 -4 27 0 33 2 48 4 33 2
-15 2 -42 0 -60z m300 20 c-3 -7 -5 -2 -5 12 0 14 2 19 5 13 2 -7 2 -19 0 -25z
m1590 0 c-3 -8 -6 -5 -6 6 -1 11 2 17 5 13 3 -3 4 -12 1 -19z m790 -80 c-3 -7
-5 -2 -5 12 0 14 2 19 5 13 2 -7 2 -19 0 -25z m-1085 -237 c-2 -73 -5 -131 -8
-128 -8 8 -13 297 -5 337 5 33 6 31 11 -20 3 -30 4 -115 2 -189z m1228 196 c0
-5 -4 -5 -10 -2 -5 3 -10 14 -10 23 0 15 2 15 10 2 5 -8 10 -19 10 -23z
m-1127 -124 c-6 -55 -15 -55 -12 -1 2 26 6 45 9 43 4 -3 5 -21 3 -42z m1185
-33 c0 -33 -2 -40 -8 -25 -5 11 -9 40 -9 65 0 32 3 39 8 25 4 -11 8 -40 9 -65z
m-3120 -110 c-2 -107 -6 -150 -15 -150 -8 0 -11 16 -8 53 2 28 6 96 7 149 2
54 7 98 11 98 5 0 7 -67 5 -150z m2909 83 c-3 -10 -5 -2 -5 17 0 19 2 27 5 18
2 -10 2 -26 0 -35z m-973 -63 c1 -33 -2 -60 -6 -60 -5 0 -8 30 -8 67 0 36 3
63 7 59 4 -3 7 -33 7 -66z m1125 -29 c1 -75 -7 -60 -13 24 -3 45 -2 63 4 50 5
-11 9 -44 9 -74z m-2492 37 c-3 -8 -6 -5 -6 6 -1 11 2 17 5 13 3 -3 4 -12 1
-19z m-418 -213 c0 -38 -2 -113 -4 -165 -2 -52 -4 -110 -4 -129 -1 -19 -4 -32
-7 -28 -4 3 -8 120 -9 259 -3 238 -3 250 11 193 8 -33 14 -91 13 -130z m145
130 c-7 -17 -12 -116 -14 -266 -1 -75 -5 -141 -9 -147 -9 -14 -6 297 4 385 4
40 10 61 15 53 4 -7 6 -18 4 -25z m61 -76 c-4 -61 -8 -118 -10 -127 -2 -9 -4
-38 -4 -64 -1 -27 -5 -48 -10 -48 -5 0 -7 15 -5 33 1 17 6 73 9 123 3 49 8 99
10 110 2 10 4 34 4 52 1 17 4 32 7 32 3 0 3 -50 -1 -111z m73 16 c-1 -47 -6
-85 -10 -85 -5 0 -6 21 -4 48 3 26 5 64 5 85 1 20 3 37 7 37 3 0 4 -38 2 -85z
m2689 23 c-2 -13 -4 -5 -4 17 -1 22 1 32 4 23 2 -10 2 -28 0 -40z m-1182 33
c3 -5 2 -12 -3 -15 -5 -3 -9 1 -9 9 0 17 3 19 12 6z m515 -65 c0 -25 -4 -19
-18 24 -11 32 -10 33 3 16 8 -11 15 -29 15 -40z m-2403 12 c-3 -7 -5 -2 -5 12
0 14 2 19 5 13 2 -7 2 -19 0 -25z m438 -51 c-2 -28 -7 -110 -11 -182 -3 -71
-9 -132 -11 -135 -3 -3 -3 67 1 155 3 88 6 175 6 193 0 18 4 31 9 28 5 -4 8
-30 6 -59z m2361 -3 c1 -9 0 -13 -4 -10 -3 4 -7 14 -8 22 -1 9 0 13 4 10 3 -4
7 -14 8 -22z m-2631 -141 c-4 -82 -9 -150 -11 -152 -2 -2 -4 64 -4 147 0 103
4 152 11 152 7 0 9 -44 4 -147z m2204 80 c1 -7 -3 -13 -7 -13 -4 0 -8 15 -9
33 -2 26 0 28 7 12 5 -11 9 -26 9 -32z m-622 5 c-3 -8 -6 -5 -6 6 -1 11 2 17
5 13 3 -3 4 -12 1 -19z m-1384 -139 c-4 -4 -6 29 -3 74 l5 82 3 -74 c2 -41 -1
-78 -5 -82z m2770 46 c-3 -9 -8 -14 -10 -11 -3 3 -2 9 2 15 9 16 15 13 8 -4z
m-363 -58 c0 -37 -26 -86 -27 -51 -1 21 16 84 23 84 2 0 4 -15 4 -33z m-2487
-74 c-6 -91 -13 -93 -13 -5 0 40 4 72 9 72 5 0 7 -30 4 -67z m-245 -19 c1 -36
-1 -72 -6 -80 -6 -11 -9 130 -3 144 4 9 6 -6 9 -64z m1819 29 c-3 -10 -5 -4
-5 12 0 17 2 24 5 18 2 -7 2 -21 0 -30z m1044 14 c-10 -9 -11 -8 -5 6 3 10 9
15 12 12 3 -3 0 -11 -7 -18z m161 -39 c-8 -8 -9 -4 -5 13 4 13 8 18 11 10 2
-7 -1 -18 -6 -23z m117 -52 c-12 -37 -23 -65 -25 -63 -2 2 6 34 17 71 12 37
23 65 25 63 2 -2 -6 -34 -17 -71z m-490 -43 c-29 -69 -41 -75 -17 -9 11 31 25
56 29 56 5 0 -1 -21 -12 -47z m-364 -43 c3 -5 1 -10 -4 -10 -6 0 -11 5 -11 10
0 6 2 10 4 10 3 0 8 -4 11 -10z m-1863 -57 c3 -29 1 -50 -4 -47 -4 3 -8 28 -8
56 0 64 6 59 12 -9z m2411 -28 c-3 -9 -8 -14 -10 -11 -3 3 -2 9 2 15 9 16 15
13 8 -4z m-2817 -97 c-7 -101 -15 -160 -23 -168 -4 -4 -2 35 11 170 2 14 4 40
4 58 1 17 5 32 9 32 3 0 3 -42 -1 -92z m261 40 c-3 -7 -5 -2 -5 12 0 14 2 19
5 13 2 -7 2 -19 0 -25z m2505 -65 c-20 -50 -45 -101 -55 -114 -10 -13 -16 -19
-14 -14 5 10 15 34 72 163 42 94 40 69 -3 -35z m-2347 -35 c-3 -31 -6 -70 -25
-298 -8 -88 -8 -85 -4 35 4 128 12 232 19 270 4 25 4 25 8 25 2 0 3 -15 2 -32z
m-570 -27 c3 -5 1 -12 -5 -16 -5 -3 -10 1 -10 9 0 18 6 21 15 7z m351 -83 c-4
-46 -9 -94 -10 -108 -2 -14 -7 -63 -11 -110 -4 -47 -9 -93 -11 -103 -1 -10 -4
-44 -5 -77 -1 -32 -6 -64 -10 -71 -7 -12 -6 29 6 261 7 134 13 189 23 205 8
12 9 18 11 55 0 17 4 30 7 30 4 0 3 -37 0 -82z m2095 45 c-12 -20 -14 -14 -5
12 4 9 9 14 11 11 3 -2 0 -13 -6 -23z m-2247 -100 c-9 -92 -9 -91 -17 -99 -3
-4 -4 4 -2 17 3 12 5 48 6 78 1 31 4 59 6 64 12 20 14 1 7 -60z m-72 -10 c-5
-59 -10 -63 -11 -10 -1 26 3 47 7 47 4 0 6 -17 4 -37z m305 -35 c-3 -7 -5 -2
-5 12 0 14 2 19 5 13 2 -7 2 -19 0 -25z m2213 22 c0 -5 -10 -15 -22 -21 l-23
-12 20 21 c23 24 25 25 25 12z m-2213 -87 c-3 -10 -5 -2 -5 17 0 19 2 27 5 18
2 -10 2 -26 0 -35z m-316 14 c-10 -9 -11 -8 -5 6 3 10 9 15 12 12 3 -3 0 -11
-7 -18z m66 -59 c-3 -8 -6 -5 -6 6 -1 11 2 17 5 13 3 -3 4 -12 1 -19z m-124
-3 c-3 -9 -8 -14 -10 -11 -3 3 -2 9 2 15 9 16 15 13 8 -4z m2817 1 c0 -2 -8
-10 -17 -17 -16 -13 -17 -12 -4 4 13 16 21 21 21 13z m-2823 -88 c-2 -13 -4
-3 -4 22 0 25 2 35 4 23 2 -13 2 -33 0 -45z m370 0 c-3 -7 -5 -2 -5 12 0 14 2
19 5 13 2 -7 2 -19 0 -25z m-371 -54 c-3 -15 -8 -29 -11 -32 -3 -3 -3 5 -1 19
2 13 5 27 5 32 1 4 3 7 6 7 3 0 3 -12 1 -26z m494 16 c0 -5 -5 -10 -11 -10 -5
0 -7 5 -4 10 3 6 8 10 11 10 2 0 4 -4 4 -10z m1870 -4 c0 -2 -17 -16 -37 -31
l-38 -26 35 30 c34 31 40 35 40 27z m-2373 -88 c-3 -8 -6 -5 -6 6 -1 11 2 17
5 13 3 -3 4 -12 1 -19z m1278 -28 c-3 -5 -12 -10 -18 -10 -7 0 -6 4 3 10 19
12 23 12 15 0z m1063 -70 c-8 -13 -24 -20 -42 -20 -16 0 -26 3 -22 8 6 5 50
24 74 31 1 1 -3 -8 -10 -19z m-2173 -191 c-3 -12 -7 -24 -10 -27 -3 -3 -3 5
-1 19 6 30 5 29 10 29 3 0 3 -10 1 -21z m1380 -132 l140 -2 1 -1207 0 -1206
-40 -5 c-55 -6 -678 0 -741 7 -27 3 -75 8 -104 11 -30 3 -56 7 -58 9 -25 24
-32 505 -19 1251 3 193 9 523 12 735 3 212 7 386 9 388 5 5 106 11 290 18 99
3 181 7 182 7 1 1 43 1 95 -1 51 -1 156 -3 233 -5z m1035 -22 c16 -19 1 -19
-24 0 -16 12 -17 15 -4 15 8 0 21 -7 28 -15z m100 -20 c13 -14 21 -25 18 -25
-2 0 -15 11 -28 25 -13 14 -21 25 -18 25 2 0 15 -11 28 -25z m-730 -6 c0 -6
-4 -7 -10 -4 -5 3 -10 11 -10 16 0 6 5 7 10 4 6 -3 10 -11 10 -16z m114 -107
c14 -51 20 -90 15 -87 -5 4 -9 13 -9 20 0 8 -6 34 -14 57 -17 53 -30 115 -23
108 4 -4 17 -47 31 -98z m-2096 33 c1 -25 3 -49 3 -53 4 -27 -3 -82 -10 -78
-9 6 -8 176 2 176 2 0 5 -20 5 -45z m2583 18 c13 -16 12 -17 -3 -4 -10 7 -18
15 -18 17 0 8 8 3 21 -13z m489 -3 c8 -5 11 -10 5 -10 -5 0 -17 5 -25 10 -8 5
-10 10 -5 10 6 0 17 -5 25 -10z m-1064 -99 c3 -25 8 -50 11 -55 4 -8 2 -8 -5
-1 -11 10 -16 34 -27 120 -4 37 -4 38 5 10 6 -16 13 -50 16 -74z m329 -15 c8
-27 15 -59 15 -70 -1 -27 -45 77 -53 124 -6 33 -6 34 8 15 9 -11 22 -42 30
-69z m837 -51 c6 -11 9 -18 6 -15 -2 3 -24 28 -48 55 -42 48 -42 48 -6 15 21
-19 42 -44 48 -55z m-2957 2 c-8 -85 -14 -248 -15 -392 -1 -67 -5 -113 -9
-106 -10 15 -7 421 3 463 3 16 7 45 9 67 1 21 6 37 10 34 4 -2 5 -32 2 -66z
m-71 -69 c-4 -62 -9 -115 -11 -118 -3 -3 -3 45 0 105 4 61 6 113 7 118 0 4 2
7 5 7 3 0 2 -51 -1 -112z m130 5 c-2 -15 -4 -60 -6 -100 -2 -39 -6 -70 -9 -68
-5 3 -4 61 1 210 2 46 3 47 10 18 4 -18 6 -45 4 -60z m1654 11 c-3 -27 -4 -26
-9 8 -3 22 -1 34 4 29 5 -5 7 -21 5 -37z m-1391 -21 c-3 -10 -5 -2 -5 17 0 19
2 27 5 18 2 -10 2 -26 0 -35z m2576 -40 c9 -24 15 -43 13 -43 -5 0 -56 109
-56 118 0 13 27 -35 43 -75z m-1186 -5 c-3 -7 -5 -2 -5 12 0 14 2 19 5 13 2
-7 2 -19 0 -25z m-1890 -40 c-3 -8 -6 -5 -6 6 -1 11 2 17 5 13 3 -3 4 -12 1
-19z m-3 -250 c-7 -275 -6 -258 -13 -258 -7 0 -5 222 3 350 3 47 6 97 6 113 0
15 2 27 5 27 3 0 2 -105 -1 -232z m2095 138 c1 -44 -10 -24 -14 26 -3 31 -2
37 5 23 5 -11 9 -33 9 -49z m-139 14 c0 -16 -4 -30 -8 -30 -4 0 -8 14 -7 30 0
17 3 30 7 30 5 0 8 -13 8 -30z m1049 -135 c0 -13 -5 -8 -14 15 -18 46 -18 61
0 30 8 -14 14 -34 14 -45z m-856 -93 c-3 -75 -7 -139 -9 -141 -2 -2 -4 62 -4
143 0 86 4 145 9 142 5 -4 7 -65 4 -144z m1174 101 c-3 -10 -5 -4 -5 12 0 17
2 24 5 18 2 -7 2 -21 0 -30z m-1110 -15 c-3 -7 -5 -2 -5 12 0 14 2 19 5 13 2
-7 2 -19 0 -25z m1057 -47 c-6 -6 -11 1 -18 29 l-7 25 15 -25 c8 -14 12 -27
10 -29z m-1177 17 c-3 -8 -6 -5 -6 6 -1 11 2 17 5 13 3 -3 4 -12 1 -19z m118
-7 c-2 -5 -8 -67 -11 -137 -4 -71 -9 -131 -12 -134 -4 -4 2 146 11 277 0 7 4
10 9 7 5 -3 6 -9 3 -13z m914 -51 c-1 -24 -1 -24 -14 5 -7 17 -11 34 -8 39 8
13 23 -16 22 -44z m-2679 -25 c0 -36 -3 -65 -7 -65 -5 0 -7 17 -6 37 1 21 2
50 2 66 1 15 3 27 6 27 3 0 5 -29 5 -65z m-133 -2 c-3 -10 -5 -2 -5 17 0 19 2
27 5 18 2 -10 2 -26 0 -35z m2406 -27 c4 -34 3 -46 -4 -39 -12 12 -19 62 -11
81 7 19 9 13 15 -42z m614 -113 c3 -87 2 -155 -1 -152 -3 3 -8 77 -12 165 -4
87 -3 156 1 152 4 -4 9 -78 12 -165z m-3169 112 c-3 -3 -9 2 -12 12 -6 14 -5
15 5 6 7 -7 10 -15 7 -18z m3112 -199 c0 -94 -1 -168 -4 -165 -4 4 -13 113
-21 284 -5 91 -4 98 9 75 11 -19 15 -66 16 -194z m-753 97 l-14 -58 -1 80 c-2
74 -1 78 13 58 13 -19 14 -29 2 -80z m591 -82 c-2 -60 -6 -107 -10 -104 -5 2
-8 59 -8 126 1 89 3 117 11 104 6 -10 9 -64 7 -126z m-1238 83 c0 -13 -4 -24
-8 -24 -5 0 -8 13 -8 29 0 17 3 28 8 25 4 -3 8 -16 8 -30z m-1353 -49 c0 -8
-4 -15 -9 -15 -10 0 -11 14 -1 23 9 10 10 9 10 -8z m2471 -25 c-1 -22 -4 -37
-6 -35 -8 8 -7 75 1 75 4 0 7 -18 5 -40z m-2671 -51 c-3 -39 -9 -74 -12 -77
-7 -7 -4 127 2 141 12 22 15 -1 10 -64z m2142 -82 c4 -92 -3 -101 -13 -17 -4
30 -9 71 -12 90 -5 29 -4 33 7 22 9 -8 15 -43 18 -95z m-2514 -52 c7 -145 7
-236 -1 -244 -2 -2 -5 28 -5 67 -1 69 -4 106 -9 117 -4 11 -1 209 4 204 2 -2
7 -67 11 -144z m3042 113 c-3 -8 -6 -5 -6 6 -1 11 2 17 5 13 3 -3 4 -12 1 -19z
m236 -116 c2 -34 1 -65 -4 -68 -5 -3 -9 27 -9 67 0 87 6 87 13 1z m274 -34
c-3 -7 -5 -2 -5 12 0 14 2 19 5 13 2 -7 2 -19 0 -25z m-3200 0 c-3 -8 -6 -5
-6 6 -1 11 2 17 5 13 3 -3 4 -12 1 -19z m2850 0 c-3 -8 -6 -5 -6 6 -1 11 2 17
5 13 3 -3 4 -12 1 -19z m-2590 -60 c-2 -13 -4 -5 -4 17 -1 22 1 32 4 23 2 -10
2 -28 0 -40z m-257 35 c0 -5 -5 -15 -10 -23 -7 -12 -9 -10 -7 8 1 19 17 33 17
15z m1633 -69 c2 -56 -11 -184 -19 -193 -2 -2 -4 58 -4 134 0 96 3 136 10 129
6 -6 12 -37 13 -70z m-1835 1 c-3 -3 -9 2 -12 12 -6 14 -5 15 5 6 7 -7 10 -15
7 -18z m189 -7 c-3 -7 -5 -2 -5 12 0 14 2 19 5 13 2 -7 2 -19 0 -25z m1750
-25 c-3 -10 -5 -2 -5 17 0 19 2 27 5 18 2 -10 2 -26 0 -35z m63 -105 c0 -7 -5
-31 -10 -53 -5 -22 -12 -65 -16 -95 -3 -30 -8 -57 -11 -60 -7 -7 7 189 16 218
3 8 21 0 21 -10z m-76 -30 c-1 -13 -3 -38 -3 -55 -1 -18 -4 -33 -8 -33 -5 0
-6 25 -5 55 2 30 7 55 11 55 4 0 7 -10 5 -22z m1469 -47 c-3 -20 -14 -52 -25
-71 -10 -19 -16 -26 -13 -15 4 11 9 38 11 60 2 22 6 51 9 64 9 38 24 7 18 -38z
m-3303 14 c0 -19 -4 -35 -8 -35 -4 0 -6 16 -4 35 2 19 6 35 8 35 2 0 4 -16 4
-35z m1953 -57 c-8 -35 -18 -81 -23 -103 -12 -60 -12 -17 1 72 9 64 19 91 36
93 1 0 -5 -28 -14 -62z m-1817 -153 c2 -92 7 -172 10 -176 3 -5 2 -9 -3 -9
-25 1 -30 21 -28 110 2 52 3 131 4 174 2 135 12 77 17 -99z m-136 150 c0 -8
-4 -15 -10 -15 -5 0 -7 7 -4 15 4 8 8 15 10 15 2 0 4 -7 4 -15z m-1 -156 c1
-73 4 -136 7 -140 3 -5 1 -9 -5 -9 -20 0 -24 25 -22 114 2 50 3 108 3 129 1
20 4 37 9 37 4 0 8 -59 8 -131z m1818 109 c-3 -8 -6 -5 -6 6 -1 11 2 17 5 13
3 -3 4 -12 1 -19z m1168 -85 c-16 -28 -16 -25 2 42 6 26 8 27 11 8 2 -12 -4
-34 -13 -50z m-2668 -5 c-3 -8 -6 -5 -6 6 -1 11 2 17 5 13 3 -3 4 -12 1 -19z
m-392 -68 c0 -33 -3 -60 -7 -60 -5 0 -4 105 1 118 5 10 6 -7 6 -58z m395 -22
c0 -42 -4 -67 -8 -60 -5 7 -7 23 -6 35 1 12 3 39 3 60 2 68 11 38 11 -35z
m-507 -55 c4 -88 2 -113 -8 -113 -8 0 -12 11 -10 33 2 17 3 70 4 116 1 46 3
82 5 80 2 -2 6 -55 9 -116z m108 -184 l-9 -34 -1 40 c0 22 3 51 7 65 7 24 7
24 10 -6 2 -18 -1 -47 -7 -65z m223 44 c-2 -25 -7 -49 -10 -52 -6 -6 -3 79 3
92 8 15 10 5 7 -40z m179 -65 c-5 -97 -13 -100 -13 -5 0 43 4 77 8 77 5 0 7
-33 5 -72z m-511 20 c-8 -8 -9 -4 -5 13 4 13 8 18 11 10 2 -7 -1 -18 -6 -23z
m196 -125 c-13 -86 -18 -96 -11 -23 5 59 9 80 17 80 2 0 -1 -26 -6 -57z m2662
11 c-8 -8 -22 -20 -33 -26 -19 -10 -19 -10 -1 16 11 14 25 26 33 26 11 0 11
-3 1 -16z m132 -22 c3 -11 -2 -23 -12 -30 -16 -10 -17 -8 -7 19 13 34 13 34
19 11z m-667 -51 c-26 -43 -40 -54 -27 -23 14 35 47 83 50 73 2 -5 -8 -28 -23
-50z m559 14 c-4 -8 -13 -15 -21 -15 -13 0 -13 3 -3 15 7 8 16 15 21 15 5 0 6
-7 3 -15z m176 -5 c0 -5 -9 -14 -20 -20 -19 -10 -20 -10 -8 9 13 22 28 28 28
11z m142 -12 c-7 -7 -12 -8 -12 -2 0 6 3 14 7 17 3 4 9 5 12 2 2 -3 -1 -11 -7
-17z m-252 -1 c0 -2 -17 -19 -37 -38 -34 -31 -31 -21 6 24 12 15 31 23 31 14z
m-125 -66 c-6 -5 -23 -12 -40 -16 l-30 -6 30 15 c35 17 53 20 40 7z m-2928
-53 c-3 -8 -6 -5 -6 6 -1 11 2 17 5 13 3 -3 4 -12 1 -19z m636 -107 c-7 -12
-22 14 -19 32 3 12 6 33 7 47 1 14 5 3 8 -25 4 -27 5 -52 4 -54z m-216 22 c-3
-10 -5 -2 -5 17 0 19 2 27 5 18 2 -10 2 -26 0 -35z m-503 10 c-7 -30 -24 -55
-24 -35 0 12 21 62 27 62 2 0 0 -12 -3 -27z m513 -79 c-3 -3 -12 -4 -19 -1 -8
3 -5 6 6 6 11 1 17 -2 13 -5z m2203 -19 c-7 -8 -20 -15 -29 -15 -11 1 -8 5 9
15 32 18 35 18 20 0z m-2540 -14 c0 -5 -7 -12 -16 -15 -14 -5 -15 -4 -4 9 14
17 20 19 20 6z m-146 -38 c-16 -25 -19 -26 -22 -9 -2 11 4 25 14 33 26 19 29
8 8 -24z m2633 31 c-3 -3 -12 -4 -19 -1 -8 3 -5 6 6 6 11 1 17 -2 13 -5z
m-2292 -24 c3 -5 1 -10 -4 -10 -6 0 -11 5 -11 10 0 6 2 10 4 10 3 0 8 -4 11
-10z m-716 -164 c-2 -2 -29 -6 -59 -10 -38 -4 -50 -3 -40 4 14 9 109 15 99 6z"/>
<path d="M6315 6260 c-66 -3 -487 -7 -935 -8 -494 -3 -817 -8 -821 -13 -3 -6
-5 -31 -3 -57 1 -26 4 -105 5 -175 5 -147 2 -143 94 -146 75 -2 181 -10 216
-16 15 -3 47 -7 70 -10 110 -13 227 -43 270 -70 54 -34 77 -80 93 -180 14 -91
19 -121 21 -135 1 -8 6 -51 10 -95 4 -44 9 -89 11 -99 4 -20 12 -174 19 -336
5 -118 5 -667 0 -710 -4 -36 -13 -252 -21 -505 -5 -132 -5 -694 -1 -1965 1
-305 -1 -582 -5 -616 -17 -146 -90 -252 -220 -317 -113 -57 -171 -69 -356 -72
-90 -2 -166 -6 -169 -9 -7 -6 -8 -364 -2 -371 5 -5 73 -8 434 -22 442 -16
2029 -8 2302 12 32 2 92 7 133 10 107 7 191 15 220 20 14 3 46 7 71 10 25 3
56 8 70 10 13 3 40 8 59 11 190 30 467 129 630 226 167 99 338 255 427 388
208 312 297 756 238 1185 -17 119 -80 316 -140 436 -192 383 -519 667 -910
790 -55 17 -108 34 -118 38 -12 4 22 26 119 76 75 39 143 75 153 80 174 108
341 255 433 385 97 136 174 333 203 515 11 69 14 368 4 425 -5 30 -11 72 -14
92 -19 127 -75 290 -147 429 -162 314 -443 541 -825 669 -108 36 -246 71 -333
84 -137 21 -183 27 -240 32 -79 8 -878 11 -1045 4z m1125 -171 c9 -5 -1 -6
-25 -2 -22 3 -44 10 -50 15 -12 12 51 1 75 -13z m-2310 -4 c0 -8 -4 -15 -10
-15 -5 0 -10 7 -10 15 0 8 5 15 10 15 6 0 10 -7 10 -15z m1975 -5 c3 -5 1 -10
-4 -10 -6 0 -11 5 -11 10 0 6 2 10 4 10 3 0 8 -4 11 -10z m-1520 -20 c3 -5 -1
-10 -10 -10 -9 0 -13 5 -10 10 3 6 8 10 10 10 2 0 7 -4 10 -10z m-655 -96 c0
-2 -13 -4 -30 -4 -16 0 -30 4 -30 8 0 5 14 7 30 4 17 -2 30 -6 30 -8z m444
-140 c3 -8 2 -12 -4 -9 -6 3 -10 10 -10 16 0 14 7 11 14 -7z m1536 -18 c131
-12 178 -18 340 -48 258 -47 367 -83 441 -145 68 -58 230 -299 282 -420 39
-93 57 -210 61 -395 9 -499 -136 -817 -436 -961 -72 -34 -174 -72 -219 -81
-13 -2 -53 -11 -89 -20 -36 -8 -83 -18 -105 -21 -22 -4 -47 -8 -55 -10 -8 -2
-37 -7 -65 -10 -27 -3 -63 -8 -80 -10 -16 -2 -57 -7 -90 -10 -33 -3 -85 -7
-115 -10 -128 -12 -535 -3 -550 12 -7 7 -10 203 -11 923 -1 773 7 1191 22
1201 6 3 45 7 87 8 42 1 77 3 79 4 4 5 442 -1 503 -7z m1404 -252 c3 -8 2 -12
-4 -9 -6 3 -10 10 -10 16 0 14 7 11 14 -7z m286 -218 c0 -5 -7 -1 -15 10 -8
10 -14 24 -14 29 0 6 6 1 14 -9 8 -11 15 -24 15 -30z m-461 -40 c-3 -3 -11 5
-18 17 -13 21 -12 21 5 5 10 -10 16 -20 13 -22z m176 -97 c7 -23 6 -23 -8 -4
-8 11 -17 36 -21 55 l-7 35 14 -31 c8 -17 18 -41 22 -55z m-2242 36 c-3 -9 -8
-14 -10 -11 -3 3 -2 9 2 15 9 16 15 13 8 -4z m2107 -126 c4 -21 3 -36 -1 -33
-5 3 -9 15 -9 27 0 12 -7 35 -15 51 -20 38 -19 46 2 17 9 -13 19 -41 23 -62z
m-2183 -16 c-3 -10 -5 -4 -5 12 0 17 2 24 5 18 2 -7 2 -21 0 -30z m2342 -43
c0 -9 -4 -8 -9 5 -5 11 -9 27 -9 35 0 9 4 8 9 -5 5 -11 9 -27 9 -35z m-75 -12
c5 -29 4 -38 -7 -38 -15 0 -31 65 -20 82 9 15 20 -4 27 -44z m-2264 28 c0 -3
-4 -8 -10 -11 -5 -3 -10 -1 -10 4 0 6 5 11 10 11 6 0 10 -2 10 -4z m-13 -88
c-2 -13 -4 -3 -4 22 0 25 2 35 4 23 2 -13 2 -33 0 -45z m2689 14 c2 -22 1 -43
-3 -45 -5 -3 -9 18 -11 46 -4 60 6 59 14 -1z m-289 16 c-3 -8 -6 -5 -6 6 -1
11 2 17 5 13 3 -3 4 -12 1 -19z m18 -93 c4 -32 3 -45 -3 -35 -5 8 -12 37 -15
64 -6 64 9 37 18 -29z m205 45 c0 -16 -2 -30 -4 -30 -2 0 -6 14 -8 30 -3 17
-1 30 4 30 4 0 8 -13 8 -30z m-3079 -125 c-6 -204 -15 -216 -19 -22 -2 112 0
138 10 122 7 -11 10 -52 9 -100z m2765 68 c7 -27 6 -45 -2 -62 l-12 -23 -6 29
c-8 33 -5 93 4 93 3 0 10 -17 16 -37z m221 -25 c-3 -7 -5 -2 -5 12 0 14 2 19
5 13 2 -7 2 -19 0 -25z m-86 -121 c1 -21 -2 -42 -7 -47 -5 -5 -10 0 -10 13 -1
12 -3 27 -4 32 -1 6 -1 33 0 60 2 50 2 50 11 15 5 -19 9 -52 10 -73z m96 71
c1 -30 1 -31 -6 -8 -7 21 -5 40 2 40 2 0 3 -15 4 -32z m-2850 -55 c-3 -10 -5
-2 -5 17 0 19 2 27 5 18 2 -10 2 -26 0 -35z m0 -55 c-3 -7 -5 -2 -5 12 0 14 2
19 5 13 2 -7 2 -19 0 -25z m2580 -20 c-3 -7 -5 -2 -5 12 0 14 2 19 5 13 2 -7
2 -19 0 -25z m360 -80 c-3 -8 -6 -5 -6 6 -1 11 2 17 5 13 3 -3 4 -12 1 -19z
m-227 -23 c0 -8 -4 -15 -10 -15 -5 0 -7 7 -4 15 4 8 8 15 10 15 2 0 4 -7 4
-15z m67 -7 c-3 -8 -6 -5 -6 6 -1 11 2 17 5 13 3 -3 4 -12 1 -19z m-271 -90
c-3 -24 -9 -72 -12 -108 -6 -65 -18 -110 -29 -110 -4 0 -4 8 -1 18 2 9 7 37
10 62 3 25 11 72 16 105 5 33 10 63 10 68 0 4 3 7 6 7 4 0 4 -19 0 -42z m130
-40 c-2 -18 -10 -71 -16 -118 -6 -47 -16 -89 -22 -95 -9 -9 -8 5 6 90 4 27 19
108 22 118 1 4 2 14 3 22 0 8 4 15 7 15 3 0 3 -15 0 -32z m-81 -115 c-15 -124
-17 -138 -27 -148 -6 -7 -8 2 -4 25 3 19 11 68 18 108 14 86 23 96 13 15z
m-2670 17 c3 -5 1 -10 -4 -10 -6 0 -11 5 -11 10 0 6 2 10 4 10 3 0 8 -4 11
-10z m72 -42 c-3 -8 -6 -5 -6 6 -1 11 2 17 5 13 3 -3 4 -12 1 -19z m160 -35
c-3 -10 -5 -2 -5 17 0 19 2 27 5 18 2 -10 2 -26 0 -35z m-226 -5 c0 -24 3 -55
5 -69 2 -15 -1 -31 -8 -37 -10 -8 -13 6 -13 69 0 43 3 79 7 79 5 0 8 -19 9
-42z m286 -50 c-2 -13 -4 -3 -4 22 0 25 2 35 4 23 2 -13 2 -33 0 -45z m-210
37 c0 -8 -4 -12 -9 -9 -5 3 -6 10 -3 15 9 13 12 11 12 -6z m2 -92 c-2 -70 -6
-63 -11 20 -2 26 0 47 4 47 5 0 7 -30 7 -67z m2631 2 c0 -8 -16 -32 -36 -53
l-35 -37 33 52 c18 29 34 53 36 53 1 0 2 -7 2 -15z m-110 -25 c-6 -11 -18 -18
-28 -17 -15 1 -16 5 -8 23 6 13 17 19 28 16 14 -3 15 -8 8 -22z m230 -64 c0
-3 -4 -8 -10 -11 -5 -3 -10 -1 -10 4 0 6 5 11 10 11 6 0 10 -2 10 -4z m-2466
-105 c-3 -39 -10 -69 -13 -66 -4 2 -2 35 3 74 12 90 20 85 10 -8z m2396 51 c0
-5 -15 -19 -32 -32 l-33 -23 29 31 c31 34 36 37 36 24z m-2506 -59 c-9 -79
-16 -81 -13 -5 1 34 6 62 11 62 4 0 5 -26 2 -57z m2755 55 c-2 -2 -20 -16 -39
-33 l-35 -30 29 33 c17 17 34 32 40 32 5 0 7 -1 5 -2z m-2529 -38 c0 -5 -7
-10 -15 -10 -8 0 -15 5 -15 10 0 6 7 10 15 10 8 0 15 -4 15 -10z m-429 -40 c6
0 8 -3 6 -7 -7 -12 -24 -273 -31 -455 0 -20 -4 -39 -8 -43 -6 -7 -1 445 6 500
6 47 8 52 13 28 2 -13 9 -23 14 -23z m192 -65 c-3 -9 -8 -14 -10 -11 -3 3 -2
9 2 15 9 16 15 13 8 -4z m173 -100 c-3 -33 -6 -82 -7 -110 l-2 -50 -6 40 c-3
22 -4 85 -2 140 3 78 5 93 12 70 5 -16 7 -57 5 -90z m-65 42 c-4 -61 -11 -59
-11 3 0 29 3 50 7 46 4 -4 6 -26 4 -49z m2259 -1 c0 -2 -8 -10 -17 -17 -16
-13 -17 -12 -4 4 13 16 21 21 21 13z m-2260 -66 c0 -5 -4 -10 -10 -10 -5 0
-10 5 -10 10 0 6 5 10 10 10 6 0 10 -4 10 -10z m1720 -79 c-25 -15 -292 -102
-297 -98 -5 6 52 28 187 71 108 35 136 42 110 27z m-2126 -197 c9 -262 10
-324 3 -330 -4 -4 -7 31 -8 77 0 46 -2 116 -5 154 -8 112 -8 252 1 243 3 -2 7
-67 9 -144z m2276 111 c0 -2 -13 -11 -29 -19 -34 -18 -51 -9 -18 10 23 13 47
17 47 9z m-815 -55 c-11 -5 -38 -8 -60 -8 l-40 1 45 7 c64 10 78 10 55 0z m52
4 c-3 -3 -12 -4 -19 -1 -8 3 -5 6 6 6 11 1 17 -2 13 -5z m-160 -20 c-3 -3 -12
-4 -19 -1 -8 3 -5 6 6 6 11 1 17 -2 13 -5z m913 2 c0 -2 -7 -6 -15 -10 -8 -3
-15 -1 -15 4 0 6 7 10 15 10 8 0 15 -2 15 -4z m-1941 -145 c-2 -66 -6 -118
-10 -115 -4 2 -5 18 -4 36 2 18 3 70 4 116 1 45 4 82 7 82 3 0 4 -54 3 -119z
m-114 -161 c4 -121 3 -170 -4 -160 -10 14 -16 349 -7 339 3 -2 7 -83 11 -179z
m1735 170 c0 -5 -17 -12 -37 -15 -21 -4 -47 -9 -58 -12 -14 -4 -17 -2 -10 5 6
6 30 15 55 20 25 5 46 10 48 11 1 1 2 -3 2 -9z m-256 -23 c-20 -11 -162 -18
-179 -8 -13 8 44 16 129 17 55 2 66 0 50 -9z m606 3 c8 -5 11 -10 5 -10 -5 0
-17 5 -25 10 -8 5 -10 10 -5 10 6 0 17 -5 25 -10z m-215 -70 c8 -13 -5 -13
-25 0 -13 8 -13 10 2 10 9 0 20 -4 23 -10z m-1758 -65 c0 -8 -4 -12 -9 -9 -5
3 -6 10 -3 15 9 13 12 11 12 -6z m1383 -26 c145 -13 229 -32 380 -84 406 -141
545 -291 625 -676 25 -123 47 -625 31 -719 -2 -14 -7 -47 -10 -75 -30 -263
-147 -494 -312 -616 -30 -22 -84 -54 -121 -73 -80 -39 -269 -103 -363 -121 -8
-2 -42 -10 -75 -18 -96 -25 -120 -27 -305 -32 -203 -6 -821 -7 -826 -2 -16 16
-20 2407 -4 2407 34 1 206 13 208 15 8 7 696 1 772 -6z m-1383 -111 c-2 -24
-4 -7 -4 37 0 44 2 63 4 43 2 -21 2 -57 0 -80z m2304 57 c52 -31 84 -54 72
-52 -21 3 -173 94 -173 103 0 8 8 4 101 -51z m-2364 -7 c-3 -8 -6 -5 -6 6 -1
11 2 17 5 13 3 -3 4 -12 1 -19z m2568 12 c3 -5 2 -10 -4 -10 -5 0 -13 5 -16
10 -3 6 -2 10 4 10 5 0 13 -4 16 -10z m-2398 -72 c-3 -8 -6 -5 -6 6 -1 11 2
17 5 13 3 -3 4 -12 1 -19z m-160 -70 c-2 -13 -4 -5 -4 17 -1 22 1 32 4 23 2
-10 2 -28 0 -40z m-60 -30 c-3 -7 -5 -2 -5 12 0 14 2 19 5 13 2 -7 2 -19 0
-25z m2767 -105 c26 -42 44 -78 42 -80 -5 -6 -44 53 -75 115 -34 67 -17 49 33
-35z m-2844 -95 c-3 -4 -6 25 -7 65 l-1 72 7 -65 c4 -36 5 -68 1 -72z m2743
10 c3 -10 4 -18 2 -18 -6 0 -45 76 -45 87 0 10 34 -45 43 -69z m201 -88 l17
-35 -20 25 c-11 14 -21 31 -21 39 0 18 4 14 24 -29z m-73 -12 c15 -28 5 -21
-21 15 -15 20 -17 27 -6 18 9 -8 22 -23 27 -33z m-2974 -95 c3 -65 2 -115 -2
-111 -4 4 -9 59 -11 124 -2 65 -1 115 2 111 3 -3 8 -59 11 -124z m2813 22 c0
-5 -5 -3 -10 5 -5 8 -10 20 -10 25 0 6 5 3 10 -5 5 -8 10 -19 10 -25z m-2726
-92 c-6 -113 -14 -134 -15 -45 -2 134 -2 142 10 142 6 0 8 -40 5 -97z m398 40
c-6 -65 -10 -70 -11 -15 0 28 3 52 7 52 4 0 6 -17 4 -37z m2356 -18 c-3 -3 -9
2 -12 12 -6 14 -5 15 5 6 7 -7 10 -15 7 -18z m244 -32 c-4 -55 -12 -54 -12 2
0 27 3 45 7 41 4 -4 6 -23 5 -43z m-2790 -236 c2 -70 1 -127 -3 -127 -5 0 -9
26 -11 58 -3 63 2 206 7 200 2 -2 5 -61 7 -131z m3177 68 c0 -5 -6 1 -14 15
-8 14 -14 30 -14 35 0 6 6 -1 14 -15 8 -14 14 -29 14 -35z m-175 -37 c4 -24 3
-38 -4 -38 -5 0 -10 13 -10 29 0 16 -3 38 -6 48 -5 12 -4 15 3 8 6 -5 14 -27
17 -47z m-2931 -118 c2 -53 1 -104 -3 -115 -4 -11 -8 34 -9 99 -1 66 1 118 3
115 2 -2 6 -47 9 -99z m-321 55 c2 -19 0 -35 -4 -35 -4 0 -8 16 -8 35 0 19 2
35 4 35 2 0 6 -16 8 -35z m3258 -25 c0 -22 -2 -40 -4 -40 -2 0 -6 18 -8 40 -2
22 0 40 4 40 5 0 8 -18 8 -40z m100 -1 c0 -5 -4 -9 -8 -9 -5 0 -9 7 -9 15 0 8
4 12 9 9 4 -3 8 -9 8 -15z m-3347 -204 c-3 -44 -5 -85 -5 -92 -1 -7 -4 -10 -8
-8 -6 4 -7 140 0 215 l3 35 7 -35 c4 -19 5 -71 3 -115z m166 98 c1 -26 -1 -44
-5 -41 -8 9 -9 88 -1 88 2 0 4 -21 6 -47z m2930 -50 c1 -17 -3 -34 -7 -37 -5
-3 -9 21 -10 52 -1 41 1 51 8 37 5 -11 9 -34 9 -52z m-3022 -55 c-2 -18 -4 -6
-4 27 0 33 2 48 4 33 2 -15 2 -42 0 -60z m2842 -73 c0 -11 -9 9 -20 45 -10 36
-19 70 -18 75 1 18 38 -100 38 -120z m-3047 -6 c1 -28 0 -53 -4 -56 -5 -2 -9
2 -9 9 -5 49 -7 59 -18 71 -12 15 -5 27 15 27 7 0 13 -19 16 -51z m394 -175
c-3 -80 -8 -149 -11 -153 -7 -6 -5 279 2 292 12 21 13 -6 9 -139z m2630 109
c-10 -10 -19 5 -10 18 6 11 8 11 12 0 2 -7 1 -15 -2 -18z m-2486 -73 c0 -38
-3 -70 -7 -70 -5 0 -7 15 -6 32 1 18 2 50 2 71 2 67 11 39 11 -33z m2362 38
c-7 -7 -12 -8 -12 -2 0 14 12 26 19 19 2 -3 -1 -11 -7 -17z m612 -37 c-4 -17
-9 -30 -11 -27 -3 2 -2 19 2 36 9 41 17 33 9 -9z m-253 -51 c-10 -22 -10 -20
-6 15 8 69 8 71 12 40 2 -17 -1 -42 -6 -55z m-3221 15 c0 -19 -3 -35 -7 -35
-5 0 -7 15 -6 32 2 39 2 38 8 38 3 0 5 -16 5 -35z m146 -13 c-2 -15 -4 -53 -5
-84 0 -32 -5 -58 -9 -58 -6 0 -9 135 -3 173 3 23 19 -7 17 -31z m-82 -39 c-9
-91 -14 -92 -14 -5 0 42 4 72 10 72 7 0 8 -25 4 -67z m423 -75 c-3 -7 -5 -2
-5 12 0 14 2 19 5 13 2 -7 2 -19 0 -25z m-351 -72 c0 -19 -3 -33 -7 -31 -7 5
-4 65 4 65 1 0 3 -15 3 -34z m2889 -113 c-9 -15 -13 -19 -10 -8 4 11 10 29 13
40 3 11 7 14 9 8 3 -7 -3 -24 -12 -40z m-2848 -75 c-3 -7 -5 -2 -5 12 0 14 2
19 5 13 2 -7 2 -19 0 -25z m200 -30 c-3 -8 -6 -5 -6 6 -1 11 2 17 5 13 3 -3 4
-12 1 -19z m-194 -73 c-6 -76 -14 -67 -12 16 1 45 5 66 9 54 4 -11 6 -42 3
-70z m200 40 c4 -8 3 -16 -1 -19 -4 -3 -9 4 -9 15 -2 23 3 25 10 4z m-286 -57
c-3 -8 -6 -5 -6 6 -1 11 2 17 5 13 3 -3 4 -12 1 -19z m0 -55 c-3 -10 -5 -4 -5
12 0 17 2 24 5 18 2 -7 2 -21 0 -30z m210 -75 c-2 -24 -4 -7 -4 37 0 44 2 63
4 43 2 -21 2 -57 0 -80z m2833 49 c0 -2 -15 -13 -32 -26 l-33 -22 28 25 c26
24 37 31 37 23z m174 -117 c-15 -22 -31 -37 -36 -34 -9 6 40 72 55 73 4 1 -5
-17 -19 -39z m-3444 -221 c-16 -96 -20 -109 -29 -109 -6 0 -6 14 -1 33 4 17
13 58 20 90 17 76 24 66 10 -14z m337 14 c-3 -10 -5 -2 -5 17 0 19 2 27 5 18
2 -10 2 -26 0 -35z m2708 -3 c-3 -5 -20 -19 -38 -30 -32 -22 -32 -22 3 9 37
32 45 37 35 21z m-2835 -50 c-3 -27 -10 -53 -15 -57 -4 -5 -5 10 -2 32 4 22 7
48 7 58 0 9 4 17 8 17 5 0 6 -22 2 -50z m-83 -2 c-3 -7 -5 -2 -5 12 0 14 2 19
5 13 2 -7 2 -19 0 -25z m310 -65 c-3 -10 -5 -2 -5 17 0 19 2 27 5 18 2 -10 2
-26 0 -35z m174 -14 l-9 -34 -1 31 c-1 17 2 34 6 37 12 13 14 -1 4 -34z m2365
-14 c-11 -8 -25 -15 -30 -15 -6 0 -2 7 8 15 11 8 25 15 30 15 6 0 2 -7 -8 -15z
m-2691 -25 c-4 -12 -9 -19 -12 -17 -3 3 -2 15 2 27 4 12 9 19 12 17 3 -3 2
-15 -2 -27z m-155 12 c0 -5 -9 -17 -21 -28 -21 -19 -21 -19 -8 9 12 26 29 37
29 19z m2660 3 c0 -7 -72 -41 -105 -49 -67 -16 -6 15 103 53 1 1 2 -1 2 -4z
m-2226 -97 c-7 -55 -19 -91 -33 -96 -9 -3 -8 7 4 34 9 22 16 40 16 42 -4 18 1
52 8 52 5 0 8 -15 5 -32z m-187 -63 c-4 -8 -11 -15 -17 -15 -6 0 -6 7 2 20 14
22 24 19 15 -5z m896 -22 c-7 -2 -21 -2 -30 0 -10 3 -4 5 12 5 17 0 24 -2 18
-5z m942 -53 c-3 -5 -11 -10 -16 -10 -6 0 -7 5 -4 10 3 6 11 10 16 10 6 0 7
-4 4 -10z"/>
</g>
</svg>
