<svg xmlns="http://www.w3.org/2000/svg" width="412.106" height="774.001" viewBox="0 0 412.106 774.001"><defs><style>.a{opacity:0.5;}.b{fill:#6c9184;}</style></defs><g class="a" transform="translate(-0.091 0.047)"><g transform="translate(0.091 539.961)"><path class="b" d="M297.369,810.031q-2.182-34.694-3.3-69.456t-1.188-69.524q0-19.48.253-38.96a1.481,1.481,0,0,0-1.461-1.461l-12.945.692a1.5,1.5,0,0,0-1.412,1.081c-3.428,14.211-12.905,26.356-24.671,34.792-13.285,9.525-29.22,14.61-45.126,17.648a156.719,156.719,0,0,1-45.651,2.016,118.272,118.272,0,0,1-43.3-12.945C105.9,667.1,91.826,656.987,89.527,641.773c-2.377-15.817,7.568-30.194,19.986-38.882,13.7-9.594,30.291-13.792,46.431-17.23,17-3.623,34.431-6.224,51.856-5,15.1,1.062,29.824,5.25,42.437,13.772,10.9,7.354,20.142,17.834,24.428,30.408a50.7,50.7,0,0,1,2.24,9.448,1.471,1.471,0,0,0,1.792,1.023,1.5,1.5,0,0,0,1.023-1.8c-1.9-13.743-9.526-26.035-19.762-35.191A81.406,81.406,0,0,0,221,579.437c-17.727-3.409-35.941-2.026-53.57,1.032-8.766,1.52-17.483,3.37-26.074,5.64a121.189,121.189,0,0,0-24.35,8.97c-14.016,7.179-26.834,19.042-29.892,35.064a33.963,33.963,0,0,0,3.5,23.152c3.8,6.74,9.672,12.068,15.915,16.509a111.993,111.993,0,0,0,42.8,18.068,150.259,150.259,0,0,0,47.3,1.578c16.441-1.948,33.058-5.971,47.726-13.743,13.568-7.178,25.577-18.116,32.142-32.19a55.458,55.458,0,0,0,3.623-10.344l-1.4,1.071,12.945-.691-1.461-1.461q-.526,34.762,0,69.534t2.123,69.5q.877,19.481,2.1,38.9c.117,1.871,3.039,1.88,2.922,0Z" transform="translate(-86.421 -577.446)"/></g><g transform="translate(204.665 561.934)"><path class="b" d="M298.072,633.749c1.14-.662,2.221-1.656,3.575-1.841a6.541,6.541,0,0,1,2.445.37,13.491,13.491,0,0,1,2.221.75,13.341,13.341,0,0,1,6.01,5.561,42.45,42.45,0,0,1,3.409,7.792c.545,1.529,1.149,3.038,1.656,4.578.643,1.948,1.062,3.9,1.549,5.844a31.581,31.581,0,0,0,2.094,6.058,51.024,51.024,0,0,0,3.117,5.26,103.581,103.581,0,0,0,6.633,9.321,71.8,71.8,0,0,0,7.519,8.065,57.544,57.544,0,0,0,4.412,3.711c1.7,1.247,3.575,2.308,5.386,3.389a158.921,158.921,0,0,0,45.564,18.428,197.825,197.825,0,0,0,47.989,4.938c2.191,0,4.344-.078,6.535.1a34.471,34.471,0,0,0,6.575.156c4.52-.487,8.961-2.172,13.169-3.8l3.136-1.237c.974-.379,1.948-.632,2.873-1.061a15.722,15.722,0,0,0,4.578-3.283,15.151,15.151,0,0,0,3.185-4.422c.857-1.947,1.724-3.837,2.532-5.785a48.789,48.789,0,0,0,3.643-12.029,26.066,26.066,0,0,0,.156-6.4,22.52,22.52,0,0,0-1.607-6.068c-2.922-7.169-6.136-14.278-10.977-20.376a76.258,76.258,0,0,0-7.86-8.1q-4.2-3.9-8.62-7.607a180.267,180.267,0,0,0-18.37-13.4,150.953,150.953,0,0,0-40.908-18.3,135.493,135.493,0,0,0-22.149-4.1,59.053,59.053,0,0,0-22.285,2.211c-14.308,4.149-26.921,12.915-37.518,23.2-1.257,1.208-2.474,2.445-3.672,3.7s-2.669,2.669-3.837,4.081a1.519,1.519,0,0,0,0,2.074,1.48,1.48,0,0,0,2.065,0c1.169-1.421,2.562-2.746,3.838-4.09s2.561-2.64,3.9-3.9c2.62-2.532,5.357-4.958,8.211-7.237a89.464,89.464,0,0,1,18.506-11.532,63.459,63.459,0,0,1,20.542-5.629c7.354-.663,14.737.38,21.954,1.782a142.2,142.2,0,0,1,41.171,15.1A174.772,174.772,0,0,1,466.2,646.362a67.756,67.756,0,0,1,7.6,8.006,59.247,59.247,0,0,1,5.756,9.448,109.128,109.128,0,0,1,4.734,10.782c1.393,3.74,1.149,8.055.3,11.882a64.2,64.2,0,0,1-4.247,11.893,22.056,22.056,0,0,1-2.562,4.948,15.354,15.354,0,0,1-3.9,3.555,33.6,33.6,0,0,1-5.532,2.3c-2.065.808-4.139,1.607-6.253,2.3a57.08,57.08,0,0,1-6.467,1.724,23.961,23.961,0,0,1-6.73,0c-4.042-.331-8.084-.107-12.136-.146s-8-.166-11.99-.419a186.979,186.979,0,0,1-23.376-2.922,159.91,159.91,0,0,1-45.213-15.788q-5.474-2.923-10.714-6.292a48.491,48.491,0,0,1-8.571-7.47,76.658,76.658,0,0,1-6.75-8.211,85.258,85.258,0,0,1-6.312-9.837c-1.9-3.6-2.338-7.714-3.565-11.562-.974-2.922-2.036-5.844-3.185-8.7a26.581,26.581,0,0,0-4.344-7.607,15.406,15.406,0,0,0-7.383-4.646,8.934,8.934,0,0,0-5.143-.361,17.919,17.919,0,0,0-3.652,1.948,1.461,1.461,0,0,0,1.471,2.523Z" transform="translate(-295.891 -600.004)"/></g><g transform="translate(6.499 411.437)"><path class="b" d="M293.235,628.23q.974-36.231,1.3-72.465.088-10.227.117-20.454a1.529,1.529,0,0,0-1.071-1.412c-7.529-2.708-15.233.633-21.886,4.12-3.506,1.85-6.935,3.837-10.548,5.474a78.311,78.311,0,0,1-10.782,3.9c-15.087,4.3-31.051,4.393-46.567,2.922a220.16,220.16,0,0,1-23.512-3.438,69.019,69.019,0,0,1-11.873-3.477c-3.828-1.539-7.286-3.769-10.909-5.717a45.415,45.415,0,0,0-11.532-4.178,70.521,70.521,0,0,1-11.542-3.253c-7.042-2.922-13.227-7.587-18.964-12.516q-4.441-3.818-8.708-7.792a27.964,27.964,0,0,1-10.266-19.87A75.3,75.3,0,0,1,96,478.215a14.844,14.844,0,0,1,1.208-5.737,13.465,13.465,0,0,1,3.185-4.1,48.011,48.011,0,0,1,9.4-6.039,112,112,0,0,1,21.146-8.766,114.93,114.93,0,0,1,45.778-4.1,131.483,131.483,0,0,1,24.233,5.425c8.065,2.522,16.1,5.24,23.98,8.259a106.343,106.343,0,0,1,21.779,10.88,72.967,72.967,0,0,1,15.321,14.006,75.087,75.087,0,0,1,16.49,37.5c.175,1.305.292,2.62.409,3.9a44.636,44.636,0,0,0,.662,6.127c.419,1.831,3.234,1.062,2.815-.77a43.575,43.575,0,0,1-.614-6.068c-.136-1.471-.3-2.922-.516-4.413A74.438,74.438,0,0,0,279,513.893,78.678,78.678,0,0,0,256.515,478a81.9,81.9,0,0,0-19.266-12.769,204.7,204.7,0,0,0-23.376-9.156,225.519,225.519,0,0,0-25.684-7.685,117.066,117.066,0,0,0-69.748,6.545,114.665,114.665,0,0,0-10.714,5.152,47.956,47.956,0,0,0-9.516,6.36,15.585,15.585,0,0,0-5.016,10.2,61.987,61.987,0,0,0,.224,12.1,40.366,40.366,0,0,0,2.552,11.5,30.2,30.2,0,0,0,6.711,9.857c2.8,2.825,5.844,5.454,8.766,8.084s5.99,5.143,9.165,7.48a57.153,57.153,0,0,0,21.36,9.935c4.14.974,8.3,1.763,12.146,3.623s7.227,4.169,11.026,5.922c7.626,3.516,15.954,4.958,24.194,6.224,15.915,2.435,32.142,3.779,48.2,1.617a89.932,89.932,0,0,0,22.85-6.029c3.711-1.549,7.227-3.448,10.763-5.357a56.863,56.863,0,0,1,10.967-4.938,17.026,17.026,0,0,1,10.714,0l-1.14-1.354q-.117,36.233-.906,72.466-.224,10.227-.506,20.453c-.049,1.88,2.873,1.88,2.922,0Z" transform="translate(-93 -445.812)"/></g><g transform="translate(205.92 476.689)"><path class="b" d="M299.927,538.406c1.5-2.133,4.617-1.948,6.759-1.052,2.922,1.247,4.481,4.1,5.425,6.993,1.159,3.545,1.666,7.276,2.688,10.87a55,55,0,0,0,4.325,10.86c3.808,7.169,9.652,12.555,15.866,17.619,6.623,5.386,13.256,10.8,20.279,15.653,13.48,9.311,28.567,15.993,44.064,21.185,14.98,5.016,30.652,9.36,46.548,9.652a68.365,68.365,0,0,0,22.889-3.233,36.757,36.757,0,0,0,10.607-5.084,22.908,22.908,0,0,0,6.536-8.766c1.714-3.623,3.6-7.49,4.188-11.484.6-4.179-.721-7.889-2.5-11.61a183.279,183.279,0,0,0-10.9-19.958,89.619,89.619,0,0,0-14.25-17.444c-6.058-5.6-13.139-9.8-20.269-13.87-14.113-8.045-28.6-15.71-44.122-20.668-13.948-4.451-28.674-6.506-43.255-4.559-13.636,1.812-26.873,7.12-37.012,16.616-2.659,2.5-5.844,4.588-7.968,7.617-1.081,1.548,1.452,3.009,2.523,1.481a19.579,19.579,0,0,1,3.9-3.837c1.442-1.189,2.786-2.435,4.159-3.692a54.633,54.633,0,0,1,7.977-6.029,63.827,63.827,0,0,1,18.428-7.685c13.4-3.361,27.525-2.864,40.908.263,15.584,3.633,30.126,10.46,44.1,18.067a231.147,231.147,0,0,1,21.126,12.429,72.649,72.649,0,0,1,16.12,15.5A129.841,129.841,0,0,1,480.9,583.181c1.753,3.331,3.545,6.711,5.035,10.178a15.5,15.5,0,0,1,1.432,5.455,16.226,16.226,0,0,1-1.072,5.931,52.652,52.652,0,0,1-4.734,10.324,16.654,16.654,0,0,1-3.39,4.091,21.508,21.508,0,0,1-4.967,2.922,59.071,59.071,0,0,1-21.866,5.084c-15.584.759-31.022-3.117-45.778-7.724-15.243-4.753-30.194-10.792-43.733-19.314a213.085,213.085,0,0,1-20.308-14.942c-6.107-4.87-12.662-9.74-17.191-16.266-4.383-6.3-6.574-13.47-8.191-20.882-.769-3.487-1.695-7.061-3.9-9.944a10.947,10.947,0,0,0-7.636-4.276,7.567,7.567,0,0,0-7.159,3.1c-1.081,1.539,1.451,3,2.523,1.471Z" transform="translate(-297.18 -512.775)"/></g><g transform="translate(205.918 390.438)"><path class="b" d="M315.4,453.093a164.068,164.068,0,0,1,20.629-17.181,49.672,49.672,0,0,1,23.016-8.474,86.752,86.752,0,0,1,12.428,0,93.271,93.271,0,0,1,12.536,1.393,127.545,127.545,0,0,1,24.184,7.022,225.157,225.157,0,0,1,22.938,10.714,190.22,190.22,0,0,1,22.4,13.4,94.559,94.559,0,0,1,24.886,26.58,47.043,47.043,0,0,1,5.552,11.191,16.87,16.87,0,0,1-.711,11.931,59.065,59.065,0,0,1-6.526,10.568,21.3,21.3,0,0,1-8.883,7.023,45.163,45.163,0,0,1-10.947,2.922,108.983,108.983,0,0,1-26.766.974,89.309,89.309,0,0,1-25.723-6.477,220.342,220.342,0,0,1-23.464-11.834L356.331,499.1l-12.263-6.906a72.489,72.489,0,0,1-10.714-6.9c-6.087-5-10.188-11.883-12.662-19.285-1.237-3.711-1.734-7.656-3.136-11.3-1.315-3.419-3.76-6.506-7.519-7.276a6.818,6.818,0,0,0-8.026,4.656,17.667,17.667,0,0,0-.857,5.084c-.136,2.308-.234,4.617-.351,6.925l-2.922,56.93-.7,13.821c-.088,1.87,2.834,1.87,2.922,0l2.922-57.68.73-14.376c.107-2.182.166-4.373.351-6.545a8.991,8.991,0,0,1,1.334-4.607c1.948-2.7,5.776-1.237,7.588.886,2.484,2.922,2.825,7.286,3.779,10.86,2.055,7.627,5.591,15.019,11.045,20.814,6.1,6.468,14.483,10.373,22.129,14.61l25.1,14.026c7.792,4.344,15.535,8.766,23.658,12.458a97.647,97.647,0,0,0,25.382,7.967,104.931,104.931,0,0,0,27.35.448c7.743-.847,16.3-1.948,22.714-6.818,3.36-2.542,5.659-6.019,7.958-9.487s4.5-7.168,5.26-11.288c1.588-8.542-3.458-16.724-8-23.542a97.883,97.883,0,0,0-15.964-18.506A121.842,121.842,0,0,0,442.2,449.334c-7.509-4.286-15.194-8.318-23.054-11.932-15.584-7.159-32.23-12.535-49.518-12.915a78.608,78.608,0,0,0-12.574.312,52.6,52.6,0,0,0-12.058,3.117c-8.191,3.224-15.117,8.708-21.808,14.318q-5.084,4.237-9.847,8.834c-1.363,1.305.711,3.37,2.065,2.074Z" transform="translate(-297.178 -424.366)"/></g><g transform="translate(25.153 313.555)"><path class="b" d="M299.791,449.622c-1.714-6.185-8.98-8.211-14.61-7.013-3.662.779-7,2.62-10.3,4.325a66.655,66.655,0,0,1-10.266,4.3c-14.065,4.509-29.3,4.4-43.684,1.549-15.652-3.1-30.486-9.243-44.921-15.886-3.584-1.656-7.169-3.312-10.714-5.026a57.908,57.908,0,0,1-10.061-5.844,96.768,96.768,0,0,1-8.873-8.191l-8.766-8.7c-5.708-5.64-11.688-11.162-16.558-17.532-4.032-5.23-7.792-12.175-5.026-18.866a9.874,9.874,0,0,1,2.513-3.536,1.461,1.461,0,0,0,.38-1.412,9.877,9.877,0,0,1,2.474-8.7c2.347-2.7,5.678-4.3,9.01-5.445a98.648,98.648,0,0,1,23.376-4.743,133.312,133.312,0,0,1,47.453,4.8,194.7,194.7,0,0,1,43.362,18.438c10.957,6.185,21.925,13.636,29.366,23.96a44.038,44.038,0,0,1,7.539,17.2c.75,3.9,2.23,7.549,2.786,11.484.575,4.11.692,8.308.974,12.448a24.479,24.479,0,0,1,0,5.971c-.331,1.841,2.484,2.63,2.825.779a25.5,25.5,0,0,0,.156-6.39q-.214-3.351-.448-6.692a62.431,62.431,0,0,0-1.851-12.516c-.536-1.948-1.2-3.9-1.588-5.844a43.973,43.973,0,0,0-1.286-4.948,45.792,45.792,0,0,0-4-8.922c-6.75-11.62-17.883-20.055-29.22-26.843a201.109,201.109,0,0,0-43.674-19.714,139.279,139.279,0,0,0-49.343-6.38,111.639,111.639,0,0,0-24.74,4.276c-6.818,2.026-14.493,5.669-16.12,13.373a11.406,11.406,0,0,0,.078,5.162l.38-1.422c-5.318,4.821-5.094,12.73-2.367,18.818a42.294,42.294,0,0,0,6.253,9.428c2.552,3.1,5.318,6.01,8.143,8.854,5.912,5.941,11.912,11.8,17.883,17.678a64.839,64.839,0,0,0,9.214,7.909,77.36,77.36,0,0,0,10.4,5.591c14.532,6.818,29.22,13.636,44.8,17.941,14.669,4.062,30.194,5.718,45.242,3.039a74.021,74.021,0,0,0,21.126-7.305c3.243-1.675,6.691-3.575,10.4-3.9a10.394,10.394,0,0,1,7.578,2.172,6.224,6.224,0,0,1,1.948,3.039,1.461,1.461,0,0,0,2.815-.779Z" transform="translate(-112.152 -345.554)"/></g><g transform="translate(210.573 309.367)"><path class="b" d="M304.785,450.786q.974-17.863,3.136-35.658t5.455-35.161c.312-1.675.643-3.351.974-5.026a10,10,0,0,1,.448-2.006c.2-.468.458-.477.974-.458a37.749,37.749,0,0,1,9.526,1.782l-1.023-1.022c1.821,6.457,5.377,12.185,9.107,17.688,3.848,5.678,7.714,11.318,12.906,15.857,2.571,2.24,5.328,4.266,8.084,6.282s5.542,4.052,8.376,5.99a86.974,86.974,0,0,0,17.96,9.74c12.73,4.87,26.532,6.409,39.934,8.084,7.266.906,14.61,1.607,21.924.974a82.457,82.457,0,0,0,20.454-5c3.175-1.139,6.38-2.279,9.477-3.613a22.5,22.5,0,0,0,7.841-5.114A12.884,12.884,0,0,0,484,415.9c.049-1.588-.662-3.283,0-4.812a37.759,37.759,0,0,0,1.831-4.217c1.743-6.253-.565-12.779-4.178-17.9a83.637,83.637,0,0,0-12.837-13.636,124.659,124.659,0,0,0-31-20.259,122.889,122.889,0,0,0-17.386-6.458,183.151,183.151,0,0,0-20.844-4.441c-13.48-2.2-27.71-5.2-40.908-.137-11.113,4.266-20.113,12.506-28.149,21.058-2.006,2.133-3.964,4.305-5.912,6.487-1.247,1.393.809,3.467,2.065,2.065,9.175-10.256,19.071-21.292,32.142-26.542A39.928,39.928,0,0,1,369,344.435a58.578,58.578,0,0,1,12.8.088c4.208.419,8.386,1.11,12.565,1.763s8.474,1.344,12.662,2.172a133.865,133.865,0,0,1,22.782,6.389,121.15,121.15,0,0,1,19.665,9.74,119.906,119.906,0,0,1,17.483,13q4.061,3.643,7.792,7.626a39.774,39.774,0,0,1,6.681,9.048,17.2,17.2,0,0,1,1.89,10.548,12.92,12.92,0,0,1-.721,2.572c-.351.867-.857,1.656-1.227,2.513a6.08,6.08,0,0,0-.555,2.688c0,1.071.321,2.123.3,3.2-.058,3.448-2.474,6.487-5.2,8.366-3.166,2.182-6.886,3.419-10.461,4.753-7.792,2.922-15.759,5.571-24.107,6.146-8.669.6-17.318-.584-25.889-1.714a209.015,209.015,0,0,1-23.668-4.091,79.238,79.238,0,0,1-22.178-9.117c-3.448-2.1-6.76-4.422-10.042-6.818s-6.614-4.714-9.74-7.286a52.032,52.032,0,0,1-8.308-8.513c-2.445-3.185-4.695-6.545-6.906-9.9a68.878,68.878,0,0,1-5.844-10.344,21.85,21.85,0,0,1-.974-2.63c-.263-.886-.448-2.318-1.188-2.922a8.149,8.149,0,0,0-2.805-.886c-1.1-.263-2.221-.5-3.341-.692s-2.055-.312-3.088-.429a8.233,8.233,0,0,0-2.766,0c-2.045.487-2.571,2.338-2.922,4.159q-1.256,6.312-2.357,12.662-4.48,25.655-6.526,51.622c-.341,4.217-.613,8.445-.847,12.662-.107,1.88,2.815,1.87,2.922,0Z" transform="translate(-301.957 -341.262)"/></g><g transform="translate(77.029 207.243)"><path class="b" d="M311.525,368.479a7.792,7.792,0,0,0-4.364-6.194,12.661,12.661,0,0,0-8.347-1.052c-3.38.623-6.506,2.162-9.837,2.922a23.284,23.284,0,0,1-9.6.078c-6.721-1.286-12.837-4.656-18.662-8.113-6.5-3.9-12.945-7.792-19.412-11.688l-19.48-11.688c-5.688-3.428-11.367-6.867-16.772-10.714a88.07,88.07,0,0,1-14.717-12.9A87.02,87.02,0,0,1,179,292.575a120.961,120.961,0,0,1-8.561-18.623c-2.094-6.185-3.244-13-1.1-19.334,3.253-9.6,13.772-15.925,23.727-15.077,6.467.545,12.263,4.247,17.629,7.607q9.165,5.747,18.126,11.746,18,12.058,35.259,25.168c5.61,4.276,11.181,8.6,16.636,13.071,4.929,4.032,9.828,8.328,13.441,13.636a39.691,39.691,0,0,1,4.519,8.932c.6,1.646,1.14,3.311,1.646,4.987a36.516,36.516,0,0,1,1.432,5.133c.263,1.724-.536,3.312-.73,5.006a13.13,13.13,0,0,0,.857,5.1c.974,3.458,0,7.208-.468,10.714l-1.51,10.9a1.49,1.49,0,0,0,.974,1.792,1.47,1.47,0,0,0,1.8-.974l1.607-11.552c.516-3.75,1.461-7.685.448-11.425-.419-1.539-1.1-3.078-.789-4.695.166-.847.448-1.666.6-2.513a8.684,8.684,0,0,0,0-2.922,39.783,39.783,0,0,0-1.471-5.4c-.516-1.675-1.042-3.351-1.646-5a43.436,43.436,0,0,0-4.685-9.428,51.526,51.526,0,0,0-6.234-7.481,173.625,173.625,0,0,0-15.759-13.295q-17.22-13.548-35.327-26.074-9.039-6.253-18.282-12.233-4.588-2.98-9.224-5.844a78.124,78.124,0,0,0-8.932-5.045,30.131,30.131,0,0,0-9.555-2.786,24.352,24.352,0,0,0-8.016.555,27.272,27.272,0,0,0-13.811,8.074,24.35,24.35,0,0,0-6.35,15.925c-.195,7.217,2.318,14.211,5.211,20.707,5.562,12.467,12.37,24.652,22.4,34.09s22.4,16.276,34.246,23.376L246.832,351.3c6.36,3.838,12.662,7.938,19.285,11.3,6.1,3.088,12.9,5.581,19.84,5.036,3.565-.273,6.818-1.5,10.169-2.591,2.766-.9,5.591-1.549,8.4-.623,1.948.652,3.847,2.152,4.032,4.149a1.51,1.51,0,0,0,1.461,1.461,1.461,1.461,0,0,0,1.461-1.461Z" transform="translate(-165.249 -236.563)"/></g><g transform="translate(94.631 119.926)"><path class="b" d="M312.549,366.55c2.844-18.633,6.818-37.061,10.276-55.576.448-2.377.876-4.753,1.305-7.13a27.375,27.375,0,0,0,.536-3.321c.059-1.13.088-2.26.156-3.4a20.851,20.851,0,0,0-.351-6.224,8.24,8.24,0,0,0-3.272-4.87c-2.766-2.026-6.214-2.357-9.458-3.058-2.045-.438-4.149-.594-6.224-.877s-4.266-.614-6.4-.974a119.2,119.2,0,0,1-24.126-6.526,60.389,60.389,0,0,1-11.542-5.717,92.381,92.381,0,0,1-9.672-7.51c-6.185-5.435-11.815-11.454-17.619-17.279-2.922-2.922-5.844-5.786-8.941-8.513a11.947,11.947,0,0,0-2.24-1.724c-.838-.448-1.675-.906-2.513-1.383-1.558-.9-3.088-1.851-4.588-2.844-11.688-7.734-21.36-18.633-26.843-31.548a60.383,60.383,0,0,1-4.763-20.454,49.183,49.183,0,0,1,0-5.493,26.294,26.294,0,0,1,.5-5.24,21.058,21.058,0,0,1,5.649-9.516,30.492,30.492,0,0,1,9.195-6.584,12.235,12.235,0,0,1,5.737-.789c.974.058,1.948.146,2.922.175a13.711,13.711,0,0,1,3.049.643c7.967,2.133,16,4.354,23.493,7.87a57.345,57.345,0,0,1,10.3,6.136c3.263,2.464,5.922,5.61,8.951,8.357,6.234,5.639,13.042,10.578,19.723,15.642A159.748,159.748,0,0,1,295.2,205.655a116.123,116.123,0,0,1,15.136,19.733,47.191,47.191,0,0,1,3.2,5.785c.828,1.948,1.578,3.954,2.269,5.971a83.646,83.646,0,0,1,3.166,12.311,62.015,62.015,0,0,1-.6,25.577c-.458,1.812-1.188,3.555-1.646,5.367a14.5,14.5,0,0,0-.156,5.61c.292,1.851,3.117,1.062,2.825-.779a10.716,10.716,0,0,1,.555-5.221,51.8,51.8,0,0,0,1.7-6.234,61.305,61.305,0,0,0,1.276-12.993,78.545,78.545,0,0,0-4.675-25.489c-.731-2.055-1.5-4.13-2.415-6.107a55.255,55.255,0,0,0-3.283-5.766,119.364,119.364,0,0,0-7.256-10.48,121.447,121.447,0,0,0-17.659-18.409c-6.565-5.562-13.636-10.529-20.366-15.808-3.37-2.63-6.682-5.338-9.828-8.24s-5.786-5.9-9.146-8.4c-6.6-4.919-14.347-8.1-22.139-10.607-3.993-1.286-8.026-2.4-12.068-3.477a15.73,15.73,0,0,0-3.1-.731c-1.052-.058-2.114-.088-3.175-.156a16.782,16.782,0,0,0-5.747.4c-3.73,1.071-7.276,3.7-10.139,6.243a27.145,27.145,0,0,0-6.876,9.1c-1.549,3.536-1.743,7.247-1.773,11.065a62.336,62.336,0,0,0,.886,11.016c2.357,14.094,9.691,27.009,19.753,37.012a82.275,82.275,0,0,0,17.357,13.178c.74.419,1.49.828,2.24,1.227a14.528,14.528,0,0,1,2.454,1.948q2.289,2.075,4.51,4.217c3,2.922,5.912,5.893,8.844,8.873a173.342,173.342,0,0,0,18.331,16.84c1.7,1.305,3.458,2.552,5.259,3.721a46.231,46.231,0,0,0,5.756,3.02,102.752,102.752,0,0,0,12.009,4.675,146.973,146.973,0,0,0,25.012,5.26,66.043,66.043,0,0,1,10.938,1.948,8.308,8.308,0,0,1,4.14,2.562c1.276,1.627,1.247,4.305,1.188,6.263a48.707,48.707,0,0,1-.585,6.818c-.419,2.377-.857,4.753-1.3,7.13-.886,4.782-1.811,9.545-2.747,14.318-1.821,9.331-3.672,18.662-5.347,28.022q-1.218,6.818-2.27,13.636a1.51,1.51,0,0,0,1.023,1.792,1.471,1.471,0,0,0,1.8-.974Z" transform="translate(-183.288 -147.029)"/></g><g transform="translate(233.644 235.075)"><path class="b" d="M338.526,290.726c-.75.6-1.51,1.179-2.3,1.724L338,294.739c1.889-1.5,3.818-2.922,5.649-4.529,2.416-2.055,4.695-4.276,7-6.438a70.7,70.7,0,0,1,6.964-5.912,35.886,35.886,0,0,1,3.9-2.454,45.328,45.328,0,0,1,4.422-1.88c1.383-.565,2.708-1.237,4.071-1.86a29.108,29.108,0,0,1,4.958-1.5,69.507,69.507,0,0,1,10.383-1.8,85.952,85.952,0,0,1,20.922.653,132.639,132.639,0,0,1,20.707,4.958c3.448,1.1,6.866,2.308,10.256,3.594a90.93,90.93,0,0,1,8.873,3.6,36.33,36.33,0,0,1,8.143,5.571,31.568,31.568,0,0,0,3.9,3.01c1.315.867,2.659,1.695,4.013,2.484,5.4,3.175,11.055,5.912,16.363,9.243a60.062,60.062,0,0,1,7.616,5.571,22.639,22.639,0,0,1,3.283,3.341,24.933,24.933,0,0,1,2.386,3.9c2.786,5.493,3.467,11.815,3.331,17.9a30.651,30.651,0,0,1-.263,4.821,8.941,8.941,0,0,1-2.085,3.672,13.032,13.032,0,0,1-3.282,3.01q-2.3,1.354-4.646,2.649a94.916,94.916,0,0,1-18.574,8,54.542,54.542,0,0,1-19.519,2.221,115.292,115.292,0,0,1-21.175-4.052c-6.935-1.86-13.763-4.1-20.59-6.312l-5.25-1.685c-.76-.244-1.568-.448-2.308-.74s-1.588-.74-2.386-1.081c-1.442-.623-2.922-1.217-4.3-1.948a20.464,20.464,0,0,1-3.711-2.659c-10.1-8.591-22.538-13.928-32.405-22.831a26.442,26.442,0,0,1-3.6-3.779c-.974-1.354-1.948-2.766-2.873-4.188-1.821-2.844-3.506-5.766-5.406-8.562-1.558-2.279-3.117-4.792-5.7-6.01a10.022,10.022,0,0,0-6.672-.838,6.623,6.623,0,0,0-4.666,4.461c-.6,1.783,2.211,2.552,2.815.779,1.334-3.9,7.071-2.922,9.243-.244,4.354,5.338,7.276,11.688,11.513,17.094a42.846,42.846,0,0,0,7.587,6.945c2.679,2.075,5.474,3.994,8.318,5.844,5.61,3.633,11.376,7.013,16.733,11.016,2.649,1.948,4.958,4.344,7.958,5.844,1.461.721,2.99,1.325,4.481,1.948a21.97,21.97,0,0,0,2.2.974c.75.234,1.8.565,2.7.857,6.984,2.22,13.919,4.568,20.951,6.613a156.365,156.365,0,0,0,21.379,4.87,59.718,59.718,0,0,0,10.46.711,57.042,57.042,0,0,0,10.2-1.276,83.171,83.171,0,0,0,19.256-6.993c3.136-1.549,6.2-3.244,9.214-5.016a9.819,9.819,0,0,0,2.1-1.432c.545-.545,1.091-1.1,1.6-1.685a16.135,16.135,0,0,0,2.61-3.759,7.106,7.106,0,0,0,.76-2.464c.078-.857.136-1.7.185-2.562q.136-2.464.088-4.938a46.5,46.5,0,0,0-1.13-9.487,31.166,31.166,0,0,0-3.37-8.61,27.433,27.433,0,0,0-6.341-7.227c-5-4.149-10.666-7.315-16.353-10.4-2.8-1.51-5.591-3.029-8.318-4.665-1.383-.838-2.756-1.7-4.091-2.63s-2.464-2.1-3.731-3.136a41.113,41.113,0,0,0-8.552-5.338c-2.99-1.393-6.127-2.454-9.214-3.613a166.476,166.476,0,0,0-20.892-6.428c-14.035-3.243-28.782-4.091-42.856-.331a26.1,26.1,0,0,0-4.948,1.646c-1.3.643-2.6,1.266-3.955,1.782a35.807,35.807,0,0,0-4.685,2.055,37.462,37.462,0,0,0-3.9,2.493c-5.123,3.75-9.409,8.464-14.23,12.574-1.831,1.568-3.76,3.029-5.649,4.529-1.3.974.409,3.244,1.763,2.3.974-.692,1.948-1.422,2.922-2.182a1.471,1.471,0,0,0,0-2.065,1.5,1.5,0,0,0-2.065,0Z" transform="translate(-325.643 -265.115)"/></g><g transform="translate(153.134 134.589)"><path class="b" d="M326.635,292.645q2.922-16.626,6.633-33.116t8.035-32.824c.37-1.373.74-2.756,1.12-4.14a40.507,40.507,0,0,0,1.052-3.954c.5-2.922-2.065-4.743-4.432-5.727-4.734-1.948-9.906-.662-14.61.769a48.8,48.8,0,0,1-7.607,1.89,34.96,34.96,0,0,1-7.549.146,50.97,50.97,0,0,1-14.8-3.779c-9.74-3.974-18.418-10.2-27.622-15.263-4.588-2.532-9.438-5.006-14.669-5.844a24.673,24.673,0,0,0-3.974-.321h-1.286a4.684,4.684,0,0,1-.555-.127c-.243-.078.136.078-.088,0s-.234-.214-.127-.078,0,0,0-.117a2.587,2.587,0,0,1,.117-.711c.166-.662.351-1.325.546-1.948.37-1.247.8-2.474,1.276-3.682a43.558,43.558,0,0,1,3.292-6.614,25.572,25.572,0,0,1,4.208-5.522,10.2,10.2,0,0,1,5.893-2.844,47.457,47.457,0,0,1,7.792.146,77.246,77.246,0,0,0,16.792-1.617c5.406-.974,10.84-2.357,16.363-2.367a32.562,32.562,0,0,1,14.016,3.312,42.39,42.39,0,0,1,11.8,8.074,19.591,19.591,0,0,1,3.964,5.493,19.15,19.15,0,0,1,1.656,6.935c.36,5.25-.536,10.548-1.14,15.75l-.974,8.269a1.481,1.481,0,0,0,1.461,1.461,1.5,1.5,0,0,0,1.461-1.461c.653-5.61,1.4-11.22,1.948-16.85.467-5.192.418-10.548-1.783-15.379-2.036-4.451-5.844-7.792-9.74-10.607a44.8,44.8,0,0,0-13.558-6.652,33.874,33.874,0,0,0-7.519-1.237,43.375,43.375,0,0,0-8.62.6c-5.562.857-11.035,2.192-16.626,2.922a61.477,61.477,0,0,1-8.464.5c-2.669-.049-5.337-.429-8.006-.253a13.334,13.334,0,0,0-7.217,2.484,22.129,22.129,0,0,0-4.929,5.415,47.728,47.728,0,0,0-6.487,14.191c-.351,1.315-.721,2.747.088,3.974a3.985,3.985,0,0,0,3.1,1.539c1.159.117,2.328,0,3.5.126a20.936,20.936,0,0,1,3.711.692c5.114,1.354,9.818,4.042,14.367,6.672s9.214,5.581,13.909,8.23c9.194,5.2,19.314,9.633,30.067,9.652a35.694,35.694,0,0,0,8-.9c2.659-.614,5.221-1.568,7.86-2.25a18.718,18.718,0,0,1,7.081-.7,10.007,10.007,0,0,1,2.922.818,4.743,4.743,0,0,1,2.279,1.743,2.171,2.171,0,0,1-.156,1.412c-.2.73-.4,1.461-.6,2.192-.38,1.373-.75,2.756-1.12,4.139q-1.111,4.14-2.182,8.289-2.133,8.3-4.081,16.655-3.9,16.695-7.1,33.545c-.516,2.727-.974,5.454-1.51,8.191a1.51,1.51,0,0,0,1.023,1.792,1.471,1.471,0,0,0,1.8-1.023Z" transform="translate(-243.272 -162.09)"/></g><g transform="translate(250.788 123.33)"><path class="b" d="M346.113,218.331a6.331,6.331,0,0,1,1.812-2.669,4.872,4.872,0,0,1,2.309-.974,10.286,10.286,0,0,1,5.337.974c6.01,2.786,12.038,5.454,18.292,7.665a158.542,158.542,0,0,0,39.271,8.552,149.658,149.658,0,0,0,20.259.351,120.219,120.219,0,0,0,19.675-2.445c10.967-2.416,21.925-6.088,31.324-12.36a55.1,55.1,0,0,0,12.321-11.113,42.983,42.983,0,0,0,4.948-7.373,28.035,28.035,0,0,0,2.854-9.574,35.158,35.158,0,0,0-3.555-18.818,26.055,26.055,0,0,0-11.688-11.688,28.311,28.311,0,0,0-8.084-2.737,28.9,28.9,0,0,0-4.4-.409,7.394,7.394,0,0,1-3.613-1.354,19.389,19.389,0,0,0-4.87-1.558c-1.607-.39-3.214-.73-4.87-.974a83.147,83.147,0,0,0-9.945-1.169,97.2,97.2,0,0,0-38.6,6.175c-12.165,4.432-23.922,10.587-33.652,19.188-9.312,8.23-16.841,18.282-23.532,28.694-.789,1.237-1.578,2.474-2.347,3.73-.906,1.451-2.026,2.747-3.049,4.12a1.461,1.461,0,0,0,.516,2,1.5,1.5,0,0,0,2.006-.516c1.023-1.383,2.143-2.669,3.049-4.13q1.188-1.948,2.416-3.838,2.464-3.838,5.1-7.578a130.915,130.915,0,0,1,11.4-14.084,88.7,88.7,0,0,1,13.636-11.98,106.459,106.459,0,0,1,16.86-9.409,102.708,102.708,0,0,1,37.226-9.506,81.2,81.2,0,0,1,19.12,1.276c1.578.3,3.146.653,4.7,1.042.8.2,1.607.419,2.406.653a10.367,10.367,0,0,1,2.016,1.032,8.513,8.513,0,0,0,4.237,1.13,23.375,23.375,0,0,1,3.955.409,25.489,25.489,0,0,1,13.889,7.665,22.2,22.2,0,0,1,4.247,6.818,36.064,36.064,0,0,1,2.435,8.99,25.326,25.326,0,0,1-4.111,17.814,50.058,50.058,0,0,1-10.967,12c-8.552,6.818-19.013,10.831-29.493,13.519-2.688.692-5.406,1.3-8.133,1.831a93.78,93.78,0,0,1-9.915,1.208,147.631,147.631,0,0,1-20.23.4,153.173,153.173,0,0,1-38.668-6.984,165.462,165.462,0,0,1-18.379-7c-4.1-1.86-8.873-4.938-13.548-3.078a8.639,8.639,0,0,0-4.782,5.289,1.481,1.481,0,0,0,.974,1.8,1.5,1.5,0,0,0,1.8-1.023Z" transform="translate(-343.245 -150.564)"/></g><g transform="translate(225.441 -0.047)"><path class="b" d="M346.094,213.543l4.529-24.058c1.247-6.6,2.591-13.217,6.818-18.623,6.662-8.474,17.386-13.636,22.12-23.649,3.146-6.652,2.357-14.1,1.714-21.214-.7-7.792-1.568-15.584-.243-23.376a56.013,56.013,0,0,1,8.25-20.454c3.9-6.234,8.289-12.2,10.889-19.139,2.386-6.389,3.175-13.753.078-20.045-2.552-5.211-7.675-9.467-13.636-9.808a13.9,13.9,0,0,0-2.114.068,3.633,3.633,0,0,1-2.279-.1,6.381,6.381,0,0,1-1.344-1.578,17.08,17.08,0,0,0-1.471-1.675,19.483,19.483,0,0,0-7.247-4.451,25.694,25.694,0,0,0-16.977.166c-6.243,2.23-11.561,6.419-16.081,11.182a97.284,97.284,0,0,0-12.74,16.694,57.94,57.94,0,0,0-7.529,20.7,127.1,127.1,0,0,0-1.4,21.9c.137,13.938,2.172,28.022,7.11,41.1a89.6,89.6,0,0,0,9.428,18.389c3.8,5.659,8.1,11.006,11.444,16.977a41.516,41.516,0,0,1,3.789,8.941,1.471,1.471,0,0,0,2.825-.779c-1.831-6.428-5.367-12.136-9.175-17.532s-7.9-10.9-11.055-16.87c-6.331-11.98-9.672-25.4-10.889-38.853a148.087,148.087,0,0,1-.37-20.581c.35-7.344,1.169-14.746,3.575-21.74,2.308-6.7,6.195-12.74,10.48-18.35,3.9-5.133,8.24-10.217,13.519-14.006,4.811-3.458,10.344-5.756,16.334-5.669,5.338.088,10.782,2.036,14.162,6.321.974,1.256,1.86,2.542,3.545,2.844,1.529.282,3.078-.185,4.627-.078a12.234,12.234,0,0,1,7.178,3.214c4.656,4.208,6.166,10.461,5.172,16.558-1.159,7.13-4.87,13.363-8.766,19.324s-7.88,12.126-10.188,19.071a58.706,58.706,0,0,0-2.542,22.061c.214,3.9.633,7.734.974,11.591a61.579,61.579,0,0,1,.244,11.445c-1.2,11.347-11.8,17.659-19.285,24.9a43.352,43.352,0,0,0-5.3,6.039,30.407,30.407,0,0,0-4.159,8.552,90.952,90.952,0,0,0-2.416,10.714L345.5,201.348l-2.192,11.415c-.351,1.841,2.464,2.63,2.815.779Z" transform="translate(-317.397 -24.083)"/></g></g></svg>